ply
format ascii 1.0
element vertex 39
property float x
property float y
property float z
end_header
3.74319 0.0298276 -1.76182
2.05643 0.0450729 -0.998572
0.439032 0.35196 0.636903
0.524405 0.290731 0.552136
-0.697157 -0.202108 2.23615
-0.708514 -0.223018 2.3372
-0.697509 -0.223498 2.43989
-0.641039 0.0439094 3.03031
-0.630563 0.101932 3.13007
5.66708 0.241318 -1.72947
6.48536 0.013737 -1.67676
6.59966 0.00276946 -1.66489
6.71341 -0.0109503 -1.65583
6.82337 -0.0457974 -1.66483
7.03018 -0.0749536 -1.64073
7.50739 -0.167589 -1.62049
8.06017 -0.34769 -1.51558
8.34923 -0.481245 -1.39436
8.75068 -0.542309 -1.19603
8.98289 -0.430062 -0.996134
8.91691 -0.477742 -1.07508
8.16433 -0.404827 -1.48484
9.59119 -0.123513 0.0699773
9.55221 -0.132028 -0.000592481
10.2991 0.112324 0.773712
10.4482 0.167227 0.962581
10.5794 0.154012 1.19448
11.1032 -0.440926 3.19054
11.0897 -0.430007 3.08836
10.5824 0.075597 4.98189
10.5422 0.0922463 5.07923
10.6674 0.0347713 4.7755
0.772159 -0.500637 5.61912
1.85198 -0.0570189 6.47411
1.99602 -0.00357256 6.56241
2.90561 0.0464493 7.03355
3.37109 -0.0178194 7.25004
3.50446 -0.0460617 7.30256
3.56146 -0.0545612 7.32633
